<svg width="53" height="52" fill="none" xmlns="http://www.w3.org/2000/svg"><g clip-path="url(#clip0_1_18)"><path d="M26 2c13.255 0 24 10.745 24 24S39.255 50 26 50 2 39.255 2 26 12.745 2 26 2z" fill="#000" fill-opacity=".01" stroke="#fff" stroke-width="2"/><g clip-path="url(#clip1_1_18)"><path d="M30.663 17.15h2.283v-3.974c-.394-.054-1.748-.176-3.325-.176-3.291 0-5.545 2.07-5.545 5.874v3.5h-3.631v4.445h3.63v11.18h4.453V26.82h3.484l.553-4.443h-4.038v-3.062c0-1.284.347-2.163 2.136-2.163z" fill="#fff"/></g></g><defs><clipPath id="clip0_1_18"><path fill="#fff" d="M0 0h53v52H0z"/></clipPath><clipPath id="clip1_1_18"><path fill="#fff" transform="translate(14 13)" d="M0 0h25v25H0z"/></clipPath></defs></svg>