<svg width="52" height="52" fill="none" xmlns="http://www.w3.org/2000/svg"><g clip-path="url(#clip0_1_12)"><path d="M26 2c13.255 0 24 10.745 24 24S39.255 50 26 50 2 39.255 2 26 12.745 2 26 2z" fill="#000" fill-opacity=".01" stroke="#fff" stroke-width="2"/><g clip-path="url(#clip1_1_12)" fill="#fff"><path d="M37.976 21.056c-.056-1.275-.262-2.152-.558-2.912a5.857 5.857 0 00-1.387-2.128 5.907 5.907 0 00-2.124-1.383c-.764-.296-1.637-.502-2.912-.558-1.285-.061-1.692-.075-4.95-.075-3.26 0-3.667.014-4.947.07-1.275.056-2.152.263-2.912.558a5.856 5.856 0 00-2.128 1.388 5.907 5.907 0 00-1.383 2.124c-.296.764-.502 1.636-.558 2.911-.061 1.285-.075 1.693-.075 4.951 0 3.259.014 3.666.07 4.946.056 1.276.263 2.152.558 2.912a5.918 5.918 0 001.388 2.128c.6.61 1.327 1.084 2.124 1.383.764.296 1.636.502 2.911.558 1.28.057 1.688.07 4.947.07 3.258 0 3.666-.013 4.946-.07 1.275-.056 2.152-.262 2.911-.558a6.139 6.139 0 003.512-3.511c.295-.764.502-1.636.558-2.912.056-1.28.07-1.688.07-4.946s-.005-3.666-.06-4.946zm-2.161 9.799c-.052 1.172-.249 1.805-.413 2.227a3.981 3.981 0 01-2.278 2.278c-.422.164-1.06.361-2.227.413-1.266.056-1.646.07-4.848.07s-3.587-.014-4.848-.07c-1.172-.052-1.805-.249-2.227-.413a3.693 3.693 0 01-1.378-.895 3.732 3.732 0 01-.896-1.379c-.164-.422-.36-1.06-.412-2.227-.057-1.266-.07-1.645-.07-4.848 0-3.202.013-3.586.07-4.847.051-1.172.248-1.805.412-2.227.192-.52.497-.994.9-1.379a3.726 3.726 0 011.379-.895c.422-.164 1.06-.361 2.227-.413 1.266-.056 1.646-.07 4.848-.07 3.207 0 3.586.014 4.848.07 1.172.052 1.804.249 2.227.413a3.7 3.7 0 011.378.895c.398.39.703.858.895 1.379.164.422.361 1.06.413 2.227.056 1.266.07 1.645.07 4.847 0 3.203-.014 3.578-.07 4.844z"/><path d="M26.044 19.837a6.167 6.167 0 00-6.165 6.165 6.167 6.167 0 006.165 6.165 6.167 6.167 0 006.165-6.165 6.167 6.167 0 00-6.165-6.165zm0 10.164a4 4 0 11.001-8 4 4 0 010 8zm7.849-10.408a1.44 1.44 0 11-2.88 0 1.44 1.44 0 012.88 0z"/></g></g><defs><clipPath id="clip0_1_12"><path fill="#fff" d="M0 0h52v52H0z"/></clipPath><clipPath id="clip1_1_12"><path fill="#fff" transform="translate(14 14)" d="M0 0h24v24H0z"/></clipPath></defs></svg>