<svg width="53" height="52" fill="none" xmlns="http://www.w3.org/2000/svg"><g clip-path="url(#clip0_1_8)"><path d="M27 2c13.254 0 24 10.745 24 24S40.254 50 27 50C13.745 50 3 39.255 3 26S13.745 2 27 2z" fill="#000" fill-opacity=".01" stroke="#fff" stroke-width="2"/><g clip-path="url(#clip1_1_8)"><path d="M27.326 14c-6.58 0-10.076 4.216-10.076 8.812 0 2.13 1.19 4.79 3.098 5.633.544.245.472-.054.94-1.844a.425.425 0 00-.102-.417c-2.726-3.153-.532-9.635 5.75-9.635 9.094 0 7.395 12.582 1.583 12.582-1.498 0-2.614-1.176-2.261-2.631.428-1.733 1.266-3.596 1.266-4.845 0-3.148-4.69-2.681-4.69 1.49 0 1.289.456 2.159.456 2.159s-1.51 6.096-1.79 7.235c-.473 1.928.065 5.049.112 5.318.029.148.195.195.288.073.149-.195 1.973-2.797 2.484-4.678.186-.685.949-3.465.949-3.465.503.908 1.953 1.668 3.498 1.668 4.596 0 7.918-4.04 7.918-9.053-.016-4.806-4.13-8.402-9.423-8.402z" fill="#fff"/></g></g><defs><clipPath id="clip0_1_8"><path fill="#fff" d="M0 0h53v52H0z"/></clipPath><clipPath id="clip1_1_8"><path fill="#fff" transform="translate(15 14)" d="M0 0h24v24H0z"/></clipPath></defs></svg>